<?xml version="1.0" standalone="no"?>
<!DOCTYPE svg PUBLIC "-//W3C//DTD SVG 20010904//EN"
 "http://www.w3.org/TR/2001/REC-SVG-20010904/DTD/svg10.dtd">
<svg version="1.0" xmlns="http://www.w3.org/2000/svg"
 width="90.000000pt" height="90.000000pt" viewBox="0 0 90.000000 90.000000"
 preserveAspectRatio="xMidYMid meet">

<g transform="translate(0.000000,90.000000) scale(0.100000,-0.100000)"
fill="orange" stroke="none">
<path d="M287 753 c-99 -39 -137 -59 -135 -70 3 -15 266 -133 298 -133 33 0
295 116 298 132 2 11 -34 30 -138 72 -77 31 -150 56 -163 55 -12 0 -84 -25
-160 -56z m209 -48 c19 -15 19 -15 0 -30 -11 -8 -32 -15 -46 -15 -14 0 -35 7
-46 15 -19 15 -19 15 0 30 11 8 32 15 46 15 14 0 35 -7 46 -15z"/>
<path d="M97 603 c-4 -3 -7 -83 -7 -177 0 -131 3 -176 14 -191 8 -11 73 -49
145 -85 106 -52 135 -62 149 -54 15 10 17 33 20 188 1 103 -2 184 -7 195 -6
10 -68 43 -141 75 -127 54 -159 63 -173 49z m103 -94 c17 -30 9 -64 -15 -64
-22 0 -42 43 -32 69 9 22 34 20 47 -5z m120 -240 c17 -30 9 -64 -15 -64 -22 0
-42 43 -32 69 9 22 34 20 47 -5z"/>
<path d="M630 554 c-69 -30 -131 -62 -138 -71 -9 -13 -12 -64 -10 -197 3 -157
5 -180 20 -190 14 -8 43 2 149 54 72 36 138 75 145 86 11 17 14 59 12 195 l-3
174 -25 2 c-14 1 -81 -22 -150 -53z m118 -64 c4 -33 -20 -65 -42 -57 -31 12
-11 91 22 85 10 -2 18 -14 20 -28z m-120 -50 c4 -33 -20 -65 -42 -57 -31 12
-11 91 22 85 10 -2 18 -14 20 -28z m120 -120 c4 -33 -20 -65 -42 -57 -31 12
-11 91 22 85 10 -2 18 -14 20 -28z m-120 -60 c4 -33 -20 -65 -42 -57 -31 12
-11 91 22 85 10 -2 18 -14 20 -28z"/>
</g>
</svg>
